# xmcd
#
# Track frame offsets: 
#        150
#        26662
#        45131
#        60665
#        83040
#        111567
#        135295
#        155146
#        176034
#        190925
#        216617
#        234500
#        256143
#        275179
#        297472
#
# Disc length: 4184 seconds
#
# Revision: 0
# Processed by: cddbd v1.5.2PL0 Copyright (c) Steve Scherf et al.
# Submitted via: ExactAudioCopy v0.99pb5
#
DISCID=e210560f
DTITLE=Kitbuilders - You Trashed My Mind
DYEAR=2011
DGENRE=Electronic
TTITLE0=Disco Obsession (Airfx RMX)
TTITLE1=Follow Me
TTITLE2=Get You Boy
TTITLE3=You Trashed My Mind
TTITLE4=City Of The Damned
TTITLE5=Shoot You
TTITLE6=Burning Bridge
TTITLE7=Bodies
TTITLE8=Spellbound
TTITLE9=All About
TTITLE10=Drawing A Line
TTITLE11=We Don't Talk
TTITLE12=Animal
TTITLE13=I Try
TTITLE14=Can't Escape
EXTD=
EXTT0=
EXTT1=
EXTT2=
EXTT3=
EXTT4=
EXTT5=
EXTT6=
EXTT7=
EXTT8=
EXTT9=
EXTT10=
EXTT11=
EXTT12=
EXTT13=
EXTT14=
PLAYORDER=
